FFmpeg version SVN-r25716, Copyright (c) 2000-2010 the FFmpeg developers  built on Nov 10 2010 12:23:18 with gcc 4.1.2 20080704 (Red Hat 4.1.2-48)  configuration: --enable-libmp3lame --enable-shared --disable-mmx --arch=x86_64  libavutil     50.33. 0 / 50.33. 0  libavcore      0.12. 1 /  0.12. 1  libavcodec    52.94. 4 / 52.94. 4  libavformat   52.84. 0 / 52.84. 0  libavdevice   52. 2. 2 / 52. 2. 2  libavfilter    1.59. 0 /  1.59. 0  libswscale     0.12. 0 /  0.12. 0Input #0, avi, from '/RAID10/data/converted_video_files/47666.avi':  Duration: 00:00:07.05, start: 0.000000, bitrate: 188744 kb/s    Stream #0.0: Video: msvideo1, rgb555le, 1024x1024, 20 tbr, 20 tbn, 20 tbc[buffer @ 0x56db380] w:1024 h:1024 pixfmt:rgb555le[ffsink @ 0x56da700] auto-inserting filter 'auto-inserted scaler 0' between the filter 'src' and the filter 'out'[scale @ 0x56da9f0] w:1024 h:1024 fmt:rgb555le -> w:1024 h:1024 fmt:yuv420p flags:0x4Output #0, flv, to '/RAID10/data/converted_video_files/47666.flv':  Metadata:    encoder         : Lavf52.84.0    Stream #0.0: Video: flv, yuv420p, 1024x1024, q=2-31, 600 kb/s, 1k tbn, 24 tbcStream mapping:  Stream #0.0 -> #0.0Press [q] to stop encodingframe=    4 fps=  0 q=2.2 size=     738kB time=0.21 bitrate=28912.3kbits/s    frame=   10 fps=  9 q=18.3 size=     858kB time=0.50 bitrate=14063.2kbits/s    frame=   20 fps= 12 q=31.0 size=     891kB time=1.00 bitrate=7303.9kbits/s    frame=   30 fps= 14 q=31.0 size=     923kB time=1.50 bitrate=5042.3kbits/s    frame=   40 fps= 15 q=31.0 size=     955kB time=2.00 bitrate=3912.7kbits/s    frame=   50 fps= 15 q=31.0 size=     987kB time=2.50 bitrate=3235.1kbits/s    frame=   58 fps= 15 q=31.0 size=     991kB time=2.88 bitrate=2824.2kbits/s    frame=   69 fps= 16 q=31.0 size=    1024kB time=3.46 bitrate=2425.2kbits/s    frame=   76 fps= 16 q=31.0 size=    1054kB time=3.79 bitrate=2277.9kbits/s    frame=   83 fps= 15 q=31.0 size=    1059kB time=4.12 bitrate=2102.7kbits/s    frame=   92 fps= 16 q=31.0 size=    1090kB time=4.58 bitrate=1948.5kbits/s    frame=  101 fps= 16 q=31.0 size=    1121kB time=5.04 bitrate=1822.0kbits/s    frame=  109 fps= 16 q=24.8 size=    1152kB time=5.46 bitrate=1729.2kbits/s    frame=  117 fps= 16 q=31.0 size=    1158kB time=5.83 bitrate=1625.8kbits/s    frame=  127 fps= 16 q=31.0 size=    1190kB time=6.33 bitrate=1538.8kbits/s    frame=  135 fps= 16 q=31.0 size=    1221kB time=6.75 bitrate=1481.3kbits/s    frame=  141 fps= 16 q=31.0 Lsize=    1225kB time=7.04 bitrate=1424.9kbits/s    video:1222kB audio:0kB global headers:0kB muxing overhead 0.196992%